<svg xmlns="http://www.w3.org/2000/svg" viewBox="0 0 1846.1 338.6"><path fill="#fff" class="st1" d="M0 333L118.9 5.8H163L289.6 333h-46.7l-36.1-99.1H77.4L43.5 333H0zm89.3-134.4h105L161.9 108l-21-53.8-17.7 48.5-33.9 95.9zM337 333V5.8h144.8c35.6 0 73.6 3.1 94.2 39.9 8.3 14.9 15 31.4 15 49.4 0 50.9-32.1 89.9-77.8 96.8 3.8 2 30.1 42.7 35.8 52.1l52.1 89.1h-49.9c-28.6-47.1-56.4-93.9-89.2-137.6-7-.3-33.4-.9-39.3-.9h-46V333H337zm39.6-175.9h97.2c18.1 0 32.3-2.1 42.5-6.2 10.3-4.1 18-10.7 23.3-19.7 5.3-9 8-25.6 8-36.1 0-15.5-5.1-28.2-15.4-38.2C521.8 47 505.6 42 483.4 42H376.6v115.1zM652 333V5.8h223.3v38.6H691.5v100.2h165V183h-165v111.4h190.8V333H652zm279.5 0v-40.2l169.8-209.6c12.1-14.9 23.5-27.8 34.4-38.8h-185V5.8h237.5v38.6l-186.1 227-20.1 23h211.7V333H931.5zm303.3 0v-40.2l169.8-209.6c12.1-14.9 23.5-27.8 34.4-38.8h-185V5.8h237.5v38.6l-186.1 227-20.1 23H1497V333h-262.2zm277.1-159.3c0-54.3 15.6-96.8 46.7-127.6C1589.7 15.4 1629.9 0 1679.2 0c32.3 0 61.3 7.2 87.2 21.7 25.9 14.4 45.6 34.6 59.2 60.4 13.6 25.8 20.4 55.1 20.4 87.8 0 33.2-7.2 62.9-21.5 89.1-14.3 26.2-34.6 46-60.8 59.5-26.2 13.5-54.5 20.2-84.9 20.2-32.9 0-62.3-7.4-88.2-22.3-25.9-14.9-45.5-35.2-58.9-60.9-13.2-25.9-19.8-53.1-19.8-81.8zm47.6.6c0 39.4 11.3 70.5 34 93.2 22.6 22.7 51 34 85.2 34 34.8 0 63.4-11.5 85.9-34.4 22.5-22.9 33.7-55.4 33.7-97.5 0-26.6-4.8-49.9-14.4-69.8-9.6-19.9-23.7-35.3-42.2-46.2-18.5-10.9-39.3-16.4-62.3-16.4-32.7 0-60.9 10.5-84.5 31.6s-35.4 56.3-35.4 105.5z"/></svg>